<?xml version="1.0" standalone="no"?>
<!DOCTYPE svg PUBLIC "-//W3C//DTD SVG 20010904//EN"
 "http://www.w3.org/TR/2001/REC-SVG-20010904/DTD/svg10.dtd">
<svg version="1.0" xmlns="http://www.w3.org/2000/svg"
 width="260.000000pt" height="260.000000pt" viewBox="0 0 260.000000 260.000000"
 preserveAspectRatio="xMidYMid meet">
<metadata>
Created by potrace 1.14, written by Peter Selinger 2001-2017
</metadata>
<g transform="translate(0.000000,260.000000) scale(0.100000,-0.100000)"
fill="#000000" stroke="none">
<path d="M0 1300 l0 -1300 1300 0 1300 0 0 1300 0 1300 -1300 0 -1300 0 0
-1300z m1310 964 c88 -16 199 -56 270 -97 25 -14 63 -36 85 -48 66 -36 234
-214 289 -306 54 -92 110 -243 125 -343 73 -451 -182 -890 -614 -1058 -115
-45 -193 -57 -360 -56 -160 0 -222 10 -260 39 -29 22 -7 32 89 40 125 11 258
59 368 132 364 242 505 693 342 1091 -41 98 -68 144 -141 234 -54 67 -161 161
-218 192 -16 9 -37 21 -45 26 -64 40 -196 80 -324 97 -33 4 -61 14 -64 20 -14
45 289 69 458 37z m-479 -639 c44 -63 83 -107 96 -111 22 -6 158 33 220 63 32
15 53 11 53 -10 0 -7 -34 -59 -75 -117 -41 -57 -75 -109 -75 -115 0 -6 34 -58
75 -115 41 -58 75 -111 75 -118 0 -23 -29 -25 -67 -5 -21 11 -60 25 -87 32
-27 7 -62 19 -78 27 -16 9 -34 11 -43 7 -15 -9 -114 -136 -142 -184 -12 -20
-24 -29 -38 -27 -19 3 -20 11 -21 131 0 107 -3 130 -17 145 -20 20 -132 61
-210 77 -24 5 -28 10 -25 33 3 24 10 29 68 44 102 26 164 53 178 79 8 16 12
61 11 135 -2 106 2 134 21 134 4 0 41 -47 81 -105z"/>
</g>
</svg>
